<svg xmlns="http://www.w3.org/2000/svg" width="32" height="32" viewBox="0 0 8 8"><path d="M5.695 4.51Q4.82 4.43 4 4.43t-1.695.082l-.356-.93q.192-.629 1.723-1.86-.082-.136-.082-.273 0-.191.11-.3.109-.11.3-.11t.3.11.11.3q0 .137-.082.274 1.559 1.23 1.723 1.859zM5.04 3.199q0-.11-.328-.273-.3-.192-.711-.192-.41 0-.738.192-.301.164-.301.273 0 .082.082.082.492-.328.957-.328.273 0 .465.082.219.055.328.164.137.082.164.082.082 0 .082-.082M2.277 4.784l.082-.11Q3.262 4.62 4 4.62q.71 0 1.64.055l.083.11-.11.792H2.387Zm3.036 2.27q-.684-.438-1.204-1.286H5.23q.356.329.985.739zm-3.528-.547q.602-.383.985-.739h1.12q-.546.875-1.203 1.286Z" aria-label="bishop"/></svg>
