<svg xmlns="http://www.w3.org/2000/svg" width="32" height="32" viewBox="0 0 8 8"><path d="M4.137 1.375q0 .191.218.41l.684.766v.191q-.52.52-.52.875 0 .219.083.328.082.082.246.082.492 0 .683-1.148.383 0 .711.164.356.164.492.383-.793.82-.902 1.996H4.793L4 4.574l-.793.848H2.168q-.11-1.176-.902-1.996.136-.219.464-.383.356-.164.739-.164.164 1.148.683 1.148.164 0 .246-.082.082-.11.082-.328 0-.355-.52-.875v-.191l.685-.766q.218-.246.218-.41Zm.136 1.258q0-.274-.273-.274t-.273.274.273.273.273-.273m.602 2.023q0 .274.273.274.274 0 .274-.274 0-.273-.274-.273-.273 0-.273.273m-1.75 0q0-.273-.273-.273-.274 0-.274.273 0 .274.274.274.273 0 .273-.274M1.84 5.886l.328-.245h1.121L4 4.875l.71.766h1.122l.328.246-.246.738H2.086zm2.433.028q0-.273-.273-.273t-.273.273.273.274.273-.274" aria-label="king"/></svg>
