<svg xmlns="http://www.w3.org/2000/svg" width="32" height="32" viewBox="0 0 8 8"><path d="M5.367 5.276q-.219-.355-.219-.629 0-.273.165-.793.19-.52.19-.793 0-.82-.6-1.12.109-.165.109-.356 0-.055-.028-.11-.054-.027-.246-.027-.355 0-.629.137-.52 0-.738.055.52-.575 1.285-.575.657 0 1.067.438.437.437.437 1.12 0 .274-.11.63-.081.328-.245.71-.082.165-.082.274 0 .137.136.383.164.219.164.273 0 .11-.164.192zM3.81 3.663h-.137q-.11.602-.875.602-.3.246-.465.41-.055.082-.246.082-.219 0-.328-.055-.11-.082-.219-.219l-.22-.273q-.11-.137-.11-.274 0-.164.247-.382.273-.247.902-1.04l.164-.218q.11-.11.22-.192.136-.109.3-.164.164-.082.328-.11.192-.054.465-.081.3-.027.383-.055l.218-.054q.11-.028.22-.028.136 0 .163.028 0 .164-.164.328-.136.164-.41.218l.027.137q.329-.055.547-.273.492.328.492 1.011 0 .274-.19.82-.165.52-.165.766 0 .301.191.657H2.906q.219-.383.274-.875.547-.192.629-.766m-.52-1.094q-.328 0-.602.164.055.301.192.301.164 0 .164-.164v-.082q0-.11.246-.11zM2.66 5.495h2.762v.11q.055.519.601.6v.821H2.06v-.82q.492-.082.574-.602Z" aria-label="knight"/></svg>
