<svg xmlns="http://www.w3.org/2000/svg" width="32" height="32" viewBox="0 0 8 8"><path d="M4 4.182q-.328-.792-.82-1.175.465-.52.492-.602-.082-.137-.082-.246 0-.191.11-.3.109-.11.3-.11t.3.11.11.3q0 .11-.082.246.027.082.492.602-.52.41-.82 1.175M5.559 2.87q.82.3 1.257 1.148-.793.22-1.039.875h-1.12l-.493-.546Q4.602 3.089 5.56 2.87m-.547 1.148q0 .247.246.247t.246-.247-.246-.246-.246.246m-2.762.875q-.273-.656-1.094-.875.465-.847 1.285-1.148.957.219 1.395 1.477l-.492.546Zm.738-.875q0-.246-.246-.246t-.246.246.246.247.246-.247m1.586 1.067h1.149l.273.246q-.3.383-.3 1.039H2.331q0-.656-.3-1.04l.273-.245h1.12L4 4.483ZM4 5.468q-.246 0-.246.246T4 5.96t.246-.246T4 5.468m.984 0q-.246 0-.246.246t.246.246.246-.246-.246-.246m-1.968 0q-.246 0-.246.246t.246.246.246-.246-.246-.246" aria-label="queen"/></svg>
